<mxfile host="app.diagrams.net" modified="2024-05-16T20:58:45.281Z" agent="Mozilla/5.0 (Windows NT 10.0; Win64; x64) AppleWebKit/537.36 (KHTML, like Gecko) Chrome/124.0.0.0 Safari/537.36" version="24.4.0" etag="2vfRQHLuMvq1_LSvTFEP" type="device">
  <diagram id="59MDK8MU8Aymcewtchv3" name="Page-1">
    <mxGraphModel dx="880" dy="478" grid="1" gridSize="10" guides="1" tooltips="1" connect="1" arrows="1" fold="1" page="1" pageScale="1" pageWidth="850" pageHeight="1100" math="0" shadow="0">
      <root>
        <mxCell id="0" />
        <mxCell id="1" parent="0" />
        <mxCell id="gLxcMT8GGQoeZszPDBeq-2" value="" style="rounded=1;whiteSpace=wrap;html=1;" vertex="1" parent="1">
          <mxGeometry x="90" y="570" width="620" height="390" as="geometry" />
        </mxCell>
        <mxCell id="gLxcMT8GGQoeZszPDBeq-3" value="" style="rounded=1;whiteSpace=wrap;html=1;" vertex="1" parent="1">
          <mxGeometry x="140" y="620" width="120" height="90" as="geometry" />
        </mxCell>
        <mxCell id="gLxcMT8GGQoeZszPDBeq-5" value="" style="rounded=1;whiteSpace=wrap;html=1;" vertex="1" parent="1">
          <mxGeometry x="510" y="620" width="120" height="90" as="geometry" />
        </mxCell>
        <mxCell id="gLxcMT8GGQoeZszPDBeq-6" value="127.0.0.1" style="text;html=1;align=center;verticalAlign=middle;whiteSpace=wrap;rounded=0;" vertex="1" parent="1">
          <mxGeometry x="300" y="910" width="150" height="40" as="geometry" />
        </mxCell>
        <mxCell id="gLxcMT8GGQoeZszPDBeq-8" value="Kafka&lt;div&gt;127.0.0.0:9092&lt;/div&gt;" style="text;html=1;align=center;verticalAlign=middle;whiteSpace=wrap;rounded=0;" vertex="1" parent="1">
          <mxGeometry x="150" y="670" width="100" height="30" as="geometry" />
        </mxCell>
        <mxCell id="gLxcMT8GGQoeZszPDBeq-14" value="KafkaUI&lt;div&gt;127.0.0.0:8080&lt;/div&gt;" style="text;html=1;align=center;verticalAlign=middle;whiteSpace=wrap;rounded=0;" vertex="1" parent="1">
          <mxGeometry x="520" y="670" width="100" height="30" as="geometry" />
        </mxCell>
        <mxCell id="gLxcMT8GGQoeZszPDBeq-15" value="Kafka-net" style="text;html=1;align=center;verticalAlign=middle;whiteSpace=wrap;rounded=0;" vertex="1" parent="1">
          <mxGeometry x="150" y="620" width="100" height="30" as="geometry" />
        </mxCell>
        <mxCell id="gLxcMT8GGQoeZszPDBeq-18" value="Kafka-net" style="text;html=1;align=center;verticalAlign=middle;whiteSpace=wrap;rounded=0;" vertex="1" parent="1">
          <mxGeometry x="520" y="620" width="100" height="30" as="geometry" />
        </mxCell>
      </root>
    </mxGraphModel>
  </diagram>
</mxfile>
